<?xml version="1.0" encoding="utf-8"?>
<!-- Generator: Adobe Illustrator 18.0.0, SVG Export Plug-In . SVG Version: 6.00 Build 0)  -->
<!DOCTYPE svg PUBLIC "-//W3C//DTD SVG 1.1//EN" "http://www.w3.org/Graphics/SVG/1.1/DTD/svg11.dtd">
<svg version="1.1" id="Vrstva_1" xmlns="http://www.w3.org/2000/svg" xmlns:xlink="http://www.w3.org/1999/xlink" x="0px" y="0px"
	 viewBox="0 0 92.4 58.4" enable-background="new 0 0 92.4 58.4" xml:space="preserve">
<linearGradient id="SVGID_1_" gradientUnits="userSpaceOnUse" x1="36.2035" y1="27.2055" x2="36.2035" y2="5.589845e-08">
	<stop  offset="0" style="stop-color:#FFFFFF"/>
	<stop  offset="1" style="stop-color:#B4B4B4"/>
</linearGradient>
<polygon fill="url(#SVGID_1_)" points="20,0 32.4,0 52.4,27.2 40,27.2 "/>
<linearGradient id="SVGID_2_" gradientUnits="userSpaceOnUse" x1="16.2022" y1="5.629408e-08" x2="16.2022" y2="27.2055">
	<stop  offset="0" style="stop-color:#FFFFFF"/>
	<stop  offset="1" style="stop-color:#B4B4B4"/>
</linearGradient>
<polygon fill="url(#SVGID_2_)" points="32.4,0 20,0 0,27.2 12.4,27.2 "/>
<linearGradient id="SVGID_3_" gradientUnits="userSpaceOnUse" x1="56.2047" y1="27.2055" x2="56.2047" y2="5.517086e-08">
	<stop  offset="0" style="stop-color:#FFFFFF"/>
	<stop  offset="1" style="stop-color:#B4B4B4"/>
</linearGradient>
<polygon fill="url(#SVGID_3_)" points="72.4,0 60,0 40,27.2 52.4,27.2 "/>
<linearGradient id="SVGID_4_" gradientUnits="userSpaceOnUse" x1="36.2035" y1="58.4113" x2="36.2035" y2="31.2058">
	<stop  offset="0" style="stop-color:#FFFFFF"/>
	<stop  offset="1" style="stop-color:#B4B4B4"/>
</linearGradient>
<polygon fill="url(#SVGID_4_)" points="20,58.4 32.4,58.4 52.4,31.2 40,31.2 "/>
<linearGradient id="SVGID_5_" gradientUnits="userSpaceOnUse" x1="76.206" y1="5.444326e-08" x2="76.206" y2="27.2055">
	<stop  offset="0" style="stop-color:#FFFFFF"/>
	<stop  offset="1" style="stop-color:#B4B4B4"/>
</linearGradient>
<polygon fill="url(#SVGID_5_)" points="60,0 72.4,0 92.4,27.2 80,27.2 "/>
<linearGradient id="SVGID_6_" gradientUnits="userSpaceOnUse" x1="76.206" y1="58.4113" x2="76.206" y2="31.2058">
	<stop  offset="0" style="stop-color:#FFFFFF"/>
	<stop  offset="1" style="stop-color:#B4B4B4"/>
</linearGradient>
<polygon fill="url(#SVGID_6_)" points="60,58.4 72.4,58.4 92.4,31.2 80,31.2 "/>
<linearGradient id="SVGID_7_" gradientUnits="userSpaceOnUse" x1="16.2022" y1="31.2058" x2="16.2022" y2="58.4113">
	<stop  offset="0" style="stop-color:#FFFFFF"/>
	<stop  offset="1" style="stop-color:#B4B4B4"/>
</linearGradient>
<polygon fill="url(#SVGID_7_)" points="32.4,58.4 20,58.4 0,31.2 12.4,31.2 "/>
<linearGradient id="SVGID_8_" gradientUnits="userSpaceOnUse" x1="56.2047" y1="31.2058" x2="56.2047" y2="58.4113">
	<stop  offset="0" style="stop-color:#FFFFFF"/>
	<stop  offset="1" style="stop-color:#B4B4B4"/>
</linearGradient>
<polygon fill="url(#SVGID_8_)" points="72.4,58.4 60,58.4 40,31.2 52.4,31.2 "/>
</svg>
